<?xml version="1.0" standalone="no"?>
<!DOCTYPE svg PUBLIC "-//W3C//DTD SVG 1.0//EN" "http://www.w3.org/TR/2001/REC-SVG-20010904/DTD/svg10.dtd">
<svg xmlns="http://www.w3.org/2000/svg" xmlns:xlink="http://www.w3.org/1999/xlink" id="body_1" width="32" height="32">

<g transform="matrix(2 0 0 2 0 0)">
    <path d="M0 8C -0.0007054806 6.1889534 1.2154891 4.6033883 2.9648397 4.1347075C 4.71419 3.666027 6.5601826 4.431181 7.465 6L7.465 6L14 6C 14.132699 5.999763 14.26005 6.0522857 14.354 6.146L14.354 6.146L15.854 7.646C 15.948042 7.7398043 16.000893 7.8671727 16.000893 8C 16.000893 8.132828 15.948042 8.260196 15.854 8.354L15.854 8.354L14.354 9.854C 14.260196 9.948042 14.132828 10.000894 14 10.000894C 13.867172 10.000894 13.739804 9.948042 13.646 9.854L13.646 9.854L13 9.207L12.354 9.854C 12.260196 9.948042 12.132828 10.000894 12 10.000894C 11.867172 10.000894 11.739804 9.948042 11.646 9.854L11.646 9.854L11 9.207L10.354 9.854C 10.260196 9.948042 10.132828 10.000894 10 10.000894C 9.867172 10.000894 9.739804 9.948042 9.646 9.854L9.646 9.854L9 9.207L8.354 9.854C 8.26005 9.947714 8.132699 10.000237 8 10L8 10L7.465 10C 6.5601826 11.568819 4.7141905 12.333972 2.96484 11.865292C 1.2154896 11.396611 -0.0007054806 9.811046 0 8zM4 5C 2.5136287 5.0005636 1.2517691 6.089431 1.0336227 7.559707C 0.8154764 9.0299835 1.7068233 10.438324 3.1289988 10.870431C 4.551174 11.302538 6.0753374 10.628117 6.712 9.285C 6.794857 9.1110325 6.9703093 9.00016 7.163 9L7.163 9L7.793 9L8.646 8.146C 8.739804 8.051958 8.867172 7.9991064 9 7.9991064C 9.132828 7.9991064 9.260196 8.051958 9.354 8.146L9.354 8.146L10 8.793L10.646 8.146C 10.739804 8.051958 10.867172 7.9991064 11 7.9991064C 11.132828 7.9991064 11.260196 8.051958 11.354 8.146L11.354 8.146L12 8.793L12.646 8.146C 12.739804 8.051958 12.867172 7.9991064 13 7.9991064C 13.132828 7.9991064 13.260196 8.051958 13.354 8.146L13.354 8.146L14 8.793L14.793 8L13.793 7L7.163 7C 6.9703093 6.9998403 6.794857 6.888967 6.712 6.715C 6.2153664 5.667291 5.1594563 4.9995604 4 5z" stroke="none" fill="#000000" fill-rule="nonzero" fill-opacity="0" />
    <path d="M4 8C 4 8.357265 3.809401 8.687392 3.5 8.866026C 3.190599 9.044659 2.809401 9.044659 2.5 8.866025C 2.1905987 8.687392 2 8.357265 2 8C 2 7.4477153 2.4477153 7 3 7C 3.5522847 7 4 7.4477153 4 8z" stroke="none" fill="#000000" fill-rule="nonzero" fill-opacity="0" />
</g>
</svg>